<?xml version="1.0" encoding="utf-8"?>
<!-- Generator: Adobe Illustrator 27.2.0, SVG Export Plug-In . SVG Version: 6.00 Build 0)  -->
<svg version="1.1" id="Laag_1" xmlns="http://www.w3.org/2000/svg" xmlns:xlink="http://www.w3.org/1999/xlink" x="0px" y="0px"
	 viewBox="0 0 800 800" style="enable-background:new 0 0 800 800;" xml:space="preserve">
<style type="text/css">
	.st0{fill:none;stroke:#008B8B;stroke-width:66.6667;stroke-linecap:round;stroke-linejoin:round;stroke-miterlimit:133.3333;}
</style>
<path class="st0" d="M466.7,566.7l100-100l-100-100 M333.3,233.3l-100,100l100,100 M260,700h280c56,0,84,0,105.4-10.9
	c18.8-9.6,34.1-24.9,43.7-43.7C700,624,700,596,700,540V260c0-56,0-84-10.9-105.4c-9.6-18.8-24.9-34.1-43.7-43.7
	C624,100,596,100,540,100H260c-56,0-84,0-105.4,10.9c-18.8,9.6-34.1,24.9-43.7,43.7C100,176,100,204,100,260v280
	c0,56,0,84,10.9,105.4c9.6,18.8,24.9,34.1,43.7,43.7C176,700,204,700,260,700z"/>
</svg>
