<?xml version="1.0" encoding="utf-8"?>
<!-- Generator: Adobe Illustrator 27.2.0, SVG Export Plug-In . SVG Version: 6.00 Build 0)  -->
<svg version="1.1" id="Layer_1" xmlns="http://www.w3.org/2000/svg" xmlns:xlink="http://www.w3.org/1999/xlink" x="0px" y="0px"
	 viewBox="0 0 800 800" style="enable-background:new 0 0 800 800;" xml:space="preserve">
<style type="text/css">
	.st0{fill:#008B8B;}
</style>
<path class="st0" d="M576.1,0H223.9c-36.6,0-66.3,29.7-66.3,66.3v667.4c0,36.6,29.7,66.3,66.3,66.3h352.3
	c36.6,0,66.3-29.7,66.3-66.3V66.3C642.4,29.7,612.7,0,576.1,0z M593.1,733.7c0,9.4-7.6,17-17,17H223.9c-9.4,0-17-7.6-17-17V66.3
	c0-9.4,7.6-17,17-17h60.7c2.1,17,16.5,30.2,34.1,30.2h162.8c17.6,0,32-13.2,34.1-30.2h60.7c9.4,0,17,7.6,17,17L593.1,733.7
	L593.1,733.7z"/>
</svg>
