<?xml version="1.0" encoding="utf-8"?>
<!-- Generator: Adobe Illustrator 27.2.0, SVG Export Plug-In . SVG Version: 6.00 Build 0)  -->
<svg version="1.1" id="Laag_1" xmlns="http://www.w3.org/2000/svg" xmlns:xlink="http://www.w3.org/1999/xlink" x="0px" y="0px"
	 viewBox="0 0 800 800" style="enable-background:new 0 0 800 800;" xml:space="preserve">
<style type="text/css">
	.st0{fill-rule:evenodd;clip-rule:evenodd;fill:#008B8B;}
</style>
<path class="st0" d="M163.4,434.4c57.4-24,122-6.4,177.4,48.4l1.8,2c48.6,61,62.3,116.3,40.8,164.3C329.8,768.7,74.9,786.1,46,787.6
	l-46,2.6l25.8-38.3c0.4-0.6,43.8-66.1,43.8-178C69.6,514.8,108.2,457.4,163.4,434.4z M720.3,9.6c22.9-0.5,41.6,6.4,56.3,20.6
	c16.9,16.9,24.2,36.6,23.3,58.6c-4.6,108.9-206.9,308.5-361.1,444.9c-10.1-27-26.5-56.8-52.2-88.8l-3.7-4.1
	c-33.4-33.4-70.5-56.3-109.3-67.3C398,232.5,608.6,14.1,720.3,9.6z"/>
</svg>
